#!OML:ASF H:\ColoradoDance\Project 1\Capture day 1\Session 8\male.ASF
:FULLY-SPECIFIED
:DEGREES
44
upperback -3.449690 2.383040 -2.491130
rfoot -18.793501 16.805500
lradius 28.774000
lthumb 10.739800 50.857899
rradius 41.675098
lwrist -15.520700
rhand 0.977360 -36.978802
rhumerus -53.211899 -14.995300 -70.152901
lowerneck 2.375200 9.988800 16.819099
lhand -15.440600 21.152399
ltibia 40.424599
head 2.412750 7.083420 -5.498430
rwrist 8.199620
lfingers 7.125020
rtoes -21.514799
lowerback 3.378460 1.692080 3.682250
rfingers 7.125020
lclavicle 0.000000 0.000000
upperneck 2.901380 13.958800 -10.788300
rfemur -3.336930 12.276000 26.621401
thorax -5.225920 0.998126 -4.850100
rclavicle 0.000000 0.000000
rtibia 43.770100
lfoot -7.402140 21.155500
lhumerus -43.401901 -14.546200 72.555397
rthumb 26.526199 294.858002
root -19.670500 18.410700 16.265301 724.741028 52.012199 351.139008
ltoes 16.391701
lfemur -51.216599 17.497999 -35.930199
45
upperback -2.225340 1.111750 -0.436523
rfoot -36.470699 -5.476690
lradius 52.657501
lthumb 10.874300 56.950500
rradius 34.946499
lwrist -6.719990
rhand -0.282255 -38.005299
rhumerus -51.433800 -10.211600 -78.220398
lowerneck -1.081010 8.004870 15.419500
lhand -15.301200 27.252100
ltibia 65.076302
head 2.317870 5.390720 -6.641550
rwrist 12.516100
lfingers 7.125020
rtoes 12.005500
lowerback 5.819810 0.443855 6.638430
rfingers 7.125020
lclavicle -0.000000 0.000000
upperneck 1.541820 10.874100 -14.877600
rfemur -20.114500 11.364900 28.970800
thorax -5.470890 0.309907 -4.304380
rclavicle -0.000000 0.000000
rtibia 47.742599
lfoot 8.191670 -1.838340
lhumerus -41.472500 -19.691799 77.327499
rthumb 25.320000 293.654999
root -23.043200 18.202101 14.103100 727.875977 63.718601 352.397003
ltoes -3.335920
lfemur -68.347801 18.731001 -32.833698
46
upperback -2.363100 0.284545 1.615790
rfoot -32.127899 -13.408700
lradius 56.957802
lthumb 2.529840 57.736198
rradius 26.646799
lwrist -9.133630
rhand 3.812800 -35.247002
rhumerus -52.375301 -5.055710 -88.069801
lowerneck -1.558130 8.297660 13.329100
lhand -23.945700 27.771400
ltibia 71.254204
head 2.532270 5.629530 -6.595930
rwrist 14.259600
lfingers 7.125020
rtoes -7.679770
lowerback 3.702750 -0.064152 4.786600
rfingers 7.125020
lclavicle -0.000000 0.000000
upperneck 1.886970 11.413400 -16.009001
rfemur -31.252800 -9.710300 31.832899
thorax -4.515180 0.033197 -1.032800
rclavicle -0.000000 0.000000
rtibia 54.276600
lfoot -9.196770 21.958000
lhumerus -43.392799 -9.578460 78.870300
rthumb 29.237000 297.029999
root -24.867500 18.264601 12.863600 705.895996 82.370903 331.924011
ltoes 10.326700
lfemur -45.504501 25.427799 -9.203020
47
upperback -2.192010 1.616030 1.642120
rfoot -30.057199 -25.034100
lradius 49.619301
lthumb 6.105050 54.280701
rradius 28.368000
lwrist -8.671890
rhand 1.712280 -37.848202
rhumerus -56.302700 -8.404170 -84.793999
lowerneck -2.913870 7.737820 14.130000
lhand -20.243200 24.388599
ltibia 48.708801
head 3.453320 5.290610 -6.773330
rwrist 7.343660
lfingers 7.125020
rtoes -9.854010
lowerback 3.941500 0.819720 6.671900
rfingers 7.125020
lclavicle 0.000000 0.000000
upperneck 4.359120 10.840900 -16.276100
rfemur -25.024799 -30.939501 28.747101
thorax -4.363210 0.657591 -2.158000
rclavicle 0.000000 0.000000
rtibia 50.332802
lfoot -17.318800 21.180799
lhumerus -40.536301 -10.242800 79.715103
rthumb 27.229401 294.096985
root -25.596800 18.638700 11.119300 553.687012 55.779099 185.888000
ltoes 8.135310
lfemur -35.640598 19.478100 -6.138710
48
upperback -1.763210 1.802820 0.155711
rfoot -14.805500 -32.493698
lradius 35.692699
lthumb 4.809040 55.194599
rradius 19.093500
lwrist -12.561500
rhand -43.112202 5.498750
rhumerus -62.453400 -10.519400 -61.676601
lowerneck -6.542010 1.650720 8.549240
lhand -21.585501 25.269199
ltibia 33.785099
head 4.708630 1.205100 -3.926500
rwrist 21.700100
lfingers 7.125020
rtoes -2.558800
lowerback 1.548150 1.240980 4.179310
rfingers 7.125020
lclavicle -0.000000 0.000000
upperneck 11.463200 2.541280 -8.619790
rfemur -4.089210 -14.349200 15.945900
thorax -2.560160 0.832365 -2.247210
rclavicle -0.000000 0.000000
rtibia 45.696098
lfoot -12.451800 6.581730
lhumerus -35.805801 1.599430 66.278503
rthumb -15.966400 336.136993
root -26.242701 19.476999 8.025770 543.466980 21.251101 180.050003
ltoes -2.524120
lfemur -22.480801 7.244380 -17.802000
49
upperback -1.842740 -1.165010 0.063053
rfoot -7.935330 -14.454000
lradius 24.573500
lthumb 7.321700 56.653301
rradius 34.819302
lwrist -19.185600
rhand -33.847198 -0.695992
rhumerus -56.730999 -8.371730 -61.254002
lowerneck -5.627820 -1.024780 3.797580
lhand -18.982901 26.799999
ltibia 29.549601
head 3.911620 -0.609739 -1.395540
rwrist 6.808310
lfingers 7.125020
rtoes 4.218160
lowerback 1.436010 -0.893636 0.149848
rfingers 7.125020
lclavicle 0.000000 0.000000
upperneck 9.017990 -1.426890 -1.953970
rfemur -26.673599 -12.098900 19.634100
thorax -2.696520 -0.574141 0.024079
rclavicle 0.000000 0.000000
rtibia 69.998100
lfoot -16.869400 5.379180
lhumerus -36.332298 8.415690 58.019299
rthumb -7.032090 329.441010
root -26.781700 19.675301 5.600510 543.934021 1.736110 180.106003
ltoes -0.947118
lfemur -14.527600 -8.291900 -21.252899
50
upperback -1.699120 -2.645270 -0.507335
rfoot 0.328116 -15.147200
lradius 26.525600
lthumb 9.614380 53.852901
rradius 42.108700
lwrist -16.353001
rhand -32.463402 7.509960
rhumerus -47.852501 -6.409770 -71.598900
lowerneck -3.912280 -3.366140 1.448800
lhand -16.607201 24.092300
ltibia 0.000000
head 2.412470 -2.310950 -0.049346
rwrist 4.893530
lfingers 7.125020
rtoes -27.295000
lowerback 1.692970 -1.875240 -3.359040
rfingers 7.125020
lclavicle -0.000000 -0.000000
upperneck 5.546040 -4.719370 1.111460
rfemur -44.329498 -1.555650 17.337000
thorax -2.568470 -1.275080 1.459430
rclavicle -0.000000 -0.000000
rtibia 39.937401
lfoot -7.681170 -3.526200
lhumerus -39.643002 6.983490 65.014198
rthumb -5.696180 337.606995
root -26.940100 19.958900 3.194350 546.109985 -9.824310 178.783997
ltoes -2.375380
lfemur 4.967390 -9.451960 -22.494301
51
upperback -2.005240 -3.119360 -0.722132
rfoot -26.235001 -29.779800
lradius 27.458401
lthumb 6.892800 54.783001
rradius 28.786699
lwrist -13.947300
rhand -28.358200 -0.998611
rhumerus -43.218800 -4.244630 -76.267899
lowerneck -2.522980 -6.083540 -1.655650
lhand -19.427200 24.915199
ltibia 16.499800
head 1.929380 -4.074270 0.322030
rwrist 11.306900
lfingers 7.125020
rtoes -5.310490
lowerback 0.645858 -2.214840 -4.931130
rfingers 7.125020
lclavicle 0.000000 0.000000
upperneck 4.477200 -8.127510 0.797648
rfemur -38.606300 6.013100 7.421280
thorax -2.206980 -1.498410 2.089720
rclavicle 0.000000 0.000000
rtibia 26.527201
lfoot -18.611900 -9.777170
lhumerus -43.254200 4.690110 76.683197
rthumb -1.731910 329.028992
root -27.037399 19.121000 0.102562 547.094971 -19.923401 175.201996
ltoes 4.638760
lfemur 6.930080 -11.286700 -24.769400
52
upperback -3.429310 -2.772000 0.907474
rfoot -7.570950 -25.472200
lradius 27.623699
lthumb 9.806010 54.271198
rradius 25.723200
lwrist -13.835000
rhand -26.969999 -6.696710
rhumerus -43.583000 -9.149570 -76.211998
lowerneck -4.080900 -5.020140 -1.178170
lhand -16.408501 24.519600
ltibia 23.478399
head 3.054790 -3.428400 -0.701186
rwrist 13.423600
lfingers 7.125020
rtoes 11.592600
lowerback 0.278723 -2.023830 0.021996
rfingers 7.125020
lclavicle -0.000000 -0.000000
upperneck 7.427550 -6.605140 -1.998770
rfemur -28.519899 2.905230 19.716000
thorax -3.637150 -1.408570 1.018170
rclavicle -0.000000 -0.000000
rtibia 31.380699
lfoot 13.697000 -8.282870
lhumerus -51.919201 6.544070 77.252098
rthumb -0.391156 323.324005
root -26.943701 19.686800 -3.800200 543.765015 -19.155899 179.656998
ltoes -5.310950
lfemur 12.638200 -8.751980 -16.529400
53
upperback -3.479100 -2.138390 0.079944
rfoot -10.892700 -18.796200
lradius 29.624300
lthumb 8.543130 55.155300
rradius 42.559601
lwrist -13.063000
rhand -37.354099 1.835010
rhumerus -41.785702 5.355210 -90.433998
lowerneck -3.706370 -1.114900 1.718860
lhand -17.717300 25.348101
ltibia 55.413502
head 2.870490 -0.837395 -1.075750
rwrist 4.182390
lfingers 7.125020
rtoes 4.700380
lowerback 0.962061 -1.542080 0.622791
rfingers 7.125020
lclavicle -0.000000 0.000000
upperneck 7.076200 -1.540530 -2.231970
rfemur -17.262300 4.768710 25.215500
thorax -4.139180 -1.126010 -0.165577
rclavicle -0.000000 0.000000
rtibia 27.276600
lfoot 34.222000 4.726870
lhumerus -49.295502 5.967550 72.081802
rthumb -10.416300 332.113007
root -26.749201 20.023701 -6.679670 543.495972 -7.391770 180.125000
ltoes 31.405300
lfemur -9.789800 1.880600 -14.819700
